<?xml version="1.0" encoding="utf-8"?>
<!-- Generator: Adobe Illustrator 22.1.0, SVG Export Plug-In . SVG Version: 6.00 Build 0)  -->
<svg version="1.1" id="Layer_1" xmlns="http://www.w3.org/2000/svg" xmlns:xlink="http://www.w3.org/1999/xlink" x="0px" y="0px"
	 viewBox="0 0 174.5 216" style="enable-background:new 0 0 174.5 216;" xml:space="preserve">
<style type="text/css">
	.st0{fill:#FF8300;}
</style>
<g>
	<polygon class="st0" points="59.7,74.6 19.6,114.6 40.2,135.2 94.4,81.1 93.1,71.9 97.8,71.2 141.1,114.5 134.2,121.5 101,88.3 
		94.2,95.2 134.3,135.2 154.9,114.6 100.7,60.5 91.6,61.8 91,57 134.2,13.8 141.1,20.7 108,53.8 114.8,60.7 154.9,20.6 134.3,0 
		80.2,54 81.5,63.2 76.6,63.9 33.4,20.7 40.3,13.8 73.5,46.9 80.3,40.1 40.2,0 19.6,20.6 73.7,74.7 83,73.3 83.7,78.1 40.3,121.5 
		33.4,114.5 66.5,81.4 	"/>
	<path class="st0" d="M116.6,206.3v-77.4h0l-22.5-22.5l0,0l-6.8-6.8l0,0l0,0l-6.8,6.8l0,0l-22.5,22.5h0v77.4H0v9.7h174.5v-9.7H116.6
		z M87.3,113.2l15.7,15.7H71.5L87.3,113.2z M107,206.3H92.1v-14.4h-9.7v14.4H67.5v-28.1H107V206.3z M107,168.5H67.5v-10.3H107V168.5
		z M107,148.4H67.5v-9.6H107V148.4z"/>
</g>
</svg>
