<?xml version="1.0" encoding="utf-8"?>
<!-- Generator: Adobe Illustrator 22.1.0, SVG Export Plug-In . SVG Version: 6.00 Build 0)  -->
<svg version="1.1" id="Layer_1" xmlns="http://www.w3.org/2000/svg" xmlns:xlink="http://www.w3.org/1999/xlink" x="0px" y="0px"
	 viewBox="0 0 424.7 216" style="enable-background:new 0 0 424.7 216;" xml:space="preserve">
<style type="text/css">
	.st0{fill:#F58220;}
	.st1{fill:#3E4A5E;}
</style>
<g>
	<g>
		<polygon class="st0" points="193.9,148.1 213.4,162.8 213.4,206.2 203.6,206.2 203.6,177 193.9,177 193.9,216 223,216 223,157.3 
			203.6,142.7 203.6,99.1 213.4,99.1 213.4,128.3 223,128.3 223,89.3 193.9,89.3 		"/>
		<polygon class="st0" points="255.5,89.3 245.9,89.3 245.9,216 275,216 275,206.2 255.5,206.2 		"/>
		<polygon class="st0" points="291.5,216 320.6,216 320.6,177 311,177 311,206.2 301.1,206.2 301.1,157.4 320.6,157.4 320.6,147.6 
			301.1,147.6 301.1,99.1 311,99.1 311,128.3 320.6,128.3 320.6,89.3 291.5,89.3 		"/>
		<polygon class="st0" points="344.5,216 354.2,216 354.2,99.1 364,99.1 364,216 373.7,216 373.7,89.3 344.5,89.3 		"/>
		<polygon class="st0" points="424.7,89.3 415,89.3 415,140.4 407.5,147.7 405.1,147.7 405.1,89.3 395.4,89.3 395.4,216 405.1,216 
			405.1,157.6 407.5,157.6 415,165 415,216 424.7,216 424.7,161.1 416.8,152.4 424.7,144 		"/>
		<rect x="82.4" y="191.9" class="st0" width="9.7" height="14.4"/>
	</g>
	<g>
		<polygon class="st1" points="59.7,74.6 19.6,114.6 40.2,135.2 94.4,81.1 93.1,71.9 97.8,71.2 141.1,114.5 134.2,121.5 101,88.3 
			94.2,95.2 134.3,135.2 154.9,114.6 100.7,60.5 91.6,61.8 91,57 134.2,13.8 141.1,20.7 108,53.8 114.8,60.7 154.9,20.6 134.3,0 
			80.2,54 81.5,63.2 76.6,63.9 33.4,20.7 40.3,13.8 73.5,46.9 80.3,40.1 40.2,0 19.6,20.6 73.7,74.7 83,73.3 83.7,78.1 40.3,121.5 
			33.4,114.5 66.5,81.4 		"/>
		<path class="st1" d="M116.6,206.3v-77.4h0l-22.5-22.5l0,0l-6.8-6.8l0,0l0,0l-6.8,6.8l0,0l-22.5,22.5h0v77.4H0v9.7h174.5v-9.7
			H116.6z M67.5,138.7H107v9.6H67.5V138.7z M107,158.2v10.3H67.5v-10.3H107z M87.3,113.2l15.7,15.7H71.5L87.3,113.2z M67.5,178.2
			H107v28.1H67.5V178.2z"/>
	</g>
</g>
</svg>
